<svg width="85" height="42" viewBox="0 0 85 42" fill="none" xmlns="http://www.w3.org/2000/svg">
<path d="M13.1433 13.6028H13.1462C15.3252 13.6028 16.9882 15.1604 16.9882 16.9615V16.964C16.9882 18.7651 15.3252 20.3227 13.1462 20.3227H13.1433C10.9643 20.3227 9.30127 18.7651 9.30127 16.964V16.9615C9.30127 15.1604 10.9643 13.6028 13.1433 13.6028Z" fill="#AFB1B8" stroke="#AFB1B8"/>
<path d="M21.0702 27.5629C20.8746 27.59 20.7034 27.6124 20.5587 27.6306V11.8699C20.5653 9.06171 21.8232 6.35649 24.0805 4.35094C26.3396 2.34375 29.4128 1.20536 32.6296 1.19995C35.8455 1.20665 38.9173 2.34561 41.1752 4.35265C43.4312 6.358 44.6883 9.06238 44.695 11.8696C44.695 11.8699 44.695 11.8702 44.695 11.8704L44.695 11.8717C44.695 11.8718 44.695 11.8718 44.695 11.8718C44.6943 15.1586 43.2072 17.7824 40.9269 19.8903C38.6371 22.0069 35.5624 23.5867 32.4506 24.7509C29.3438 25.9133 26.2315 26.65 23.8922 27.0961C22.7236 27.319 21.7503 27.4689 21.0702 27.5629Z" fill="#AFB1B8" stroke="#AFB1B8"/>
<path d="M11.534 33.5484C11.5337 33.0333 11.3614 32.5357 11.0477 32.1184C10.7345 31.7018 10.2957 31.3852 9.79318 31.2002C9.29074 31.0152 8.74064 30.9675 8.21042 31.0612C7.68018 31.155 7.18601 31.3874 6.7929 31.7368C6.3992 32.0867 6.1231 32.5399 6.01045 33.0433C5.89762 33.5474 5.95626 34.0691 6.17549 34.5394C6.3942 35.0087 6.75988 35.4001 7.21674 35.6714C7.531 35.858 7.88074 35.9834 8.24418 36.0435V36.0921L8.74418 36.0921C9.10373 36.0921 9.46087 36.029 9.79557 35.9055C10.1303 35.782 10.4378 35.5996 10.6992 35.3665C10.9607 35.1332 11.1714 34.8531 11.316 34.5404C11.4605 34.2278 11.5353 33.8905 11.534 33.5484ZM11.534 33.5484C11.534 33.5481 11.534 33.5477 11.534 33.5474L11.034 33.5495H11.534C11.534 33.5491 11.534 33.5488 11.534 33.5484ZM16.8054 22.7828C16.8703 22.7739 16.9314 22.7656 16.9884 22.7581L16.9884 33.5504C16.9884 33.5506 16.9884 33.5507 16.9884 33.5509C16.9819 35.4576 16.1272 37.2983 14.5876 38.6666C13.0462 40.0364 10.9463 40.817 8.74418 40.8231C6.54157 40.817 4.44126 40.0361 2.89982 38.6657C1.36016 37.297 0.50581 35.4557 0.5 33.5487C0.500222 31.3147 1.50889 29.5277 3.07196 28.0827C4.64458 26.629 6.76344 25.5383 8.9194 24.7316C11.0704 23.9268 13.227 23.416 14.8495 23.1065C15.6597 22.9519 16.3344 22.848 16.8054 22.7828Z" fill="#AFB1B8" stroke="#AFB1B8"/>
<path d="M24.7302 31.9413V36.2069H23.8513V31.9413H24.7302ZM26.4294 33.7635V34.4491H24.4899V33.7635H26.4294ZM26.6345 31.9413V32.6298H24.4899V31.9413H26.6345ZM30.6481 33.9745V34.1766C30.6481 34.5009 30.6042 34.7919 30.5163 35.0497C30.4284 35.3075 30.3044 35.5272 30.1442 35.7089C29.9841 35.8885 29.7927 36.0262 29.57 36.1219C29.3493 36.2177 29.1042 36.2655 28.8347 36.2655C28.5671 36.2655 28.322 36.2177 28.0993 36.1219C27.8786 36.0262 27.6872 35.8885 27.5251 35.7089C27.363 35.5272 27.237 35.3075 27.1472 35.0497C27.0593 34.7919 27.0153 34.5009 27.0153 34.1766V33.9745C27.0153 33.6483 27.0593 33.3573 27.1472 33.1014C27.235 32.8436 27.3591 32.6239 27.5192 32.4423C27.6813 32.2606 27.8727 32.1219 28.0934 32.0262C28.3161 31.9305 28.5612 31.8827 28.8288 31.8827C29.0983 31.8827 29.3434 31.9305 29.5641 32.0262C29.7868 32.1219 29.9782 32.2606 30.1384 32.4423C30.3005 32.6239 30.4255 32.8436 30.5134 33.1014C30.6032 33.3573 30.6481 33.6483 30.6481 33.9745ZM29.7604 34.1766V33.9686C29.7604 33.7421 29.7399 33.5428 29.6989 33.371C29.6579 33.1991 29.5974 33.0546 29.5173 32.9374C29.4372 32.8202 29.3395 32.7323 29.2243 32.6737C29.1091 32.6132 28.9772 32.5829 28.8288 32.5829C28.6804 32.5829 28.5485 32.6132 28.4333 32.6737C28.32 32.7323 28.2233 32.8202 28.1432 32.9374C28.0651 33.0546 28.0056 33.1991 27.9645 33.371C27.9235 33.5428 27.903 33.7421 27.903 33.9686V34.1766C27.903 34.4012 27.9235 34.6005 27.9645 34.7743C28.0056 34.9462 28.0661 35.0917 28.1462 35.2108C28.2263 35.328 28.3239 35.4169 28.4391 35.4774C28.5544 35.538 28.6862 35.5682 28.8347 35.5682C28.9831 35.5682 29.1149 35.538 29.2302 35.4774C29.3454 35.4169 29.4421 35.328 29.5202 35.2108C29.5983 35.0917 29.6579 34.9462 29.6989 34.7743C29.7399 34.6005 29.7604 34.4012 29.7604 34.1766ZM33.5016 35.0907C33.5016 35.0145 33.4899 34.9462 33.4665 34.8856C33.445 34.8231 33.404 34.7665 33.3434 34.7157C33.2829 34.663 33.1979 34.6112 33.0886 34.5604C32.9792 34.5096 32.8376 34.4569 32.6638 34.4022C32.4704 34.3397 32.2868 34.2694 32.113 34.1913C31.9411 34.1132 31.7888 34.0223 31.6559 33.9188C31.5251 33.8134 31.4216 33.6913 31.3454 33.5526C31.2712 33.4139 31.2341 33.2528 31.2341 33.0692C31.2341 32.8915 31.2731 32.7303 31.3513 32.5858C31.4294 32.4393 31.5388 32.3143 31.6794 32.2108C31.82 32.1053 31.986 32.0243 32.1774 31.9677C32.3708 31.911 32.5827 31.8827 32.8132 31.8827C33.1276 31.8827 33.402 31.9393 33.6364 32.0526C33.8708 32.1659 34.0524 32.3212 34.1813 32.5184C34.3122 32.7157 34.3776 32.9413 34.3776 33.1952H33.5046C33.5046 33.0702 33.4782 32.9608 33.4255 32.8671C33.3747 32.7714 33.2966 32.6962 33.1911 32.6415C33.0876 32.5868 32.9567 32.5594 32.7985 32.5594C32.6462 32.5594 32.5192 32.5829 32.4177 32.6298C32.3161 32.6747 32.2399 32.7362 32.1891 32.8143C32.1384 32.8905 32.113 32.9764 32.113 33.0721C32.113 33.1444 32.1306 33.2098 32.1657 33.2684C32.2028 33.327 32.2575 33.3817 32.3298 33.4325C32.402 33.4833 32.4909 33.5311 32.5964 33.576C32.7018 33.621 32.8239 33.6649 32.9626 33.7079C33.195 33.7782 33.3991 33.8573 33.5749 33.9452C33.7526 34.0331 33.9011 34.1317 34.0202 34.2411C34.1393 34.3505 34.2292 34.4745 34.2897 34.6132C34.3503 34.7518 34.3806 34.9091 34.3806 35.0848C34.3806 35.2704 34.3444 35.4364 34.2722 35.5829C34.1999 35.7294 34.0954 35.8534 33.9587 35.955C33.822 36.0565 33.6589 36.1337 33.4694 36.1864C33.28 36.2391 33.0681 36.2655 32.8337 36.2655C32.6227 36.2655 32.4147 36.2382 32.2097 36.1835C32.0046 36.1268 31.8181 36.0419 31.6501 35.9286C31.4841 35.8153 31.3513 35.6708 31.2516 35.495C31.152 35.3192 31.1022 35.1112 31.1022 34.871H31.9841C31.9841 35.0038 32.0046 35.1161 32.0456 35.2079C32.0866 35.2997 32.1442 35.3739 32.2184 35.4305C32.2946 35.4872 32.3845 35.5282 32.488 35.5536C32.5934 35.579 32.7087 35.5917 32.8337 35.5917C32.986 35.5917 33.111 35.5702 33.2087 35.5272C33.3083 35.4843 33.3815 35.4247 33.4284 35.3485C33.4772 35.2723 33.5016 35.1864 33.5016 35.0907ZM36.8854 31.9413V36.2069H36.0095V31.9413H36.8854ZM38.1979 31.9413V32.6298H34.7175V31.9413H38.1979ZM41.5612 35.5214V36.2069H39.2907V35.5214H41.5612ZM39.5778 31.9413V36.2069H38.6989V31.9413H39.5778ZM41.2653 33.6786V34.3466H39.2907V33.6786H41.2653ZM41.5583 31.9413V32.6298H39.2907V31.9413H41.5583ZM42.0739 31.9413H43.6647C43.9909 31.9413 44.2712 31.9901 44.5056 32.0878C44.7419 32.1854 44.9235 32.33 45.0505 32.5214C45.1774 32.7128 45.2409 32.9481 45.2409 33.2274C45.2409 33.4559 45.2018 33.6522 45.1237 33.8163C45.0475 33.9784 44.9391 34.1141 44.7985 34.2235C44.6599 34.3309 44.4968 34.4169 44.3093 34.4813L44.0309 34.6278H42.6481L42.6423 33.9423H43.6706C43.8249 33.9423 43.9528 33.9149 44.0544 33.8602C44.1559 33.8055 44.2321 33.7294 44.2829 33.6317C44.3356 33.5341 44.362 33.4208 44.362 33.2919C44.362 33.1552 44.3366 33.037 44.2858 32.9374C44.235 32.8378 44.1579 32.7616 44.0544 32.7089C43.9509 32.6561 43.821 32.6298 43.6647 32.6298H42.9528V36.2069H42.0739V31.9413ZM44.4587 36.2069L43.486 34.3055L44.4147 34.2997L45.3991 36.1659V36.2069H44.4587ZM49.0729 34.6864H47.986V34.0009H49.0729C49.2409 34.0009 49.3776 33.9735 49.4831 33.9188C49.5886 33.8622 49.6657 33.7841 49.7145 33.6844C49.7634 33.5848 49.7878 33.4725 49.7878 33.3475C49.7878 33.2206 49.7634 33.1024 49.7145 32.993C49.6657 32.8837 49.5886 32.7958 49.4831 32.7294C49.3776 32.663 49.2409 32.6298 49.0729 32.6298H48.2907V36.2069H47.4118V31.9413H49.0729C49.4069 31.9413 49.6931 32.0018 49.9313 32.1229C50.1716 32.2421 50.3552 32.4071 50.4821 32.618C50.6091 32.829 50.6725 33.0702 50.6725 33.3417C50.6725 33.6171 50.6091 33.8553 50.4821 34.0565C50.3552 34.2577 50.1716 34.413 49.9313 34.5223C49.6931 34.6317 49.4069 34.6864 49.0729 34.6864ZM54.1413 35.5214V36.2069H51.8708V35.5214H54.1413ZM52.1579 31.9413V36.2069H51.279V31.9413H52.1579ZM53.8454 33.6786V34.3466H51.8708V33.6786H53.8454ZM54.1384 31.9413V32.6298H51.8708V31.9413H54.1384ZM56.6198 31.9413V36.2069H55.7438V31.9413H56.6198ZM57.9323 31.9413V32.6298H54.4518V31.9413H57.9323ZM61.2956 35.5214V36.2069H59.0251V35.5214H61.2956ZM59.3122 31.9413V36.2069H58.4333V31.9413H59.3122ZM60.9997 33.6786V34.3466H59.0251V33.6786H60.9997ZM61.2927 31.9413V32.6298H59.0251V31.9413H61.2927ZM61.8083 31.9413H63.3991C63.7253 31.9413 64.0056 31.9901 64.2399 32.0878C64.4763 32.1854 64.6579 32.33 64.7849 32.5214C64.9118 32.7128 64.9753 32.9481 64.9753 33.2274C64.9753 33.4559 64.9362 33.6522 64.8581 33.8163C64.7819 33.9784 64.6735 34.1141 64.5329 34.2235C64.3942 34.3309 64.2311 34.4169 64.0436 34.4813L63.7653 34.6278H62.3825L62.3766 33.9423H63.405C63.5593 33.9423 63.6872 33.9149 63.7888 33.8602C63.8903 33.8055 63.9665 33.7294 64.0173 33.6317C64.07 33.5341 64.0964 33.4208 64.0964 33.2919C64.0964 33.1552 64.071 33.037 64.0202 32.9374C63.9694 32.8378 63.8923 32.7616 63.7888 32.7089C63.6852 32.6561 63.5554 32.6298 63.3991 32.6298H62.6872V36.2069H61.8083V31.9413ZM64.1931 36.2069L63.2204 34.3055L64.1491 34.2997L65.1335 36.1659V36.2069H64.1931ZM67.8727 35.0907C67.8727 35.0145 67.861 34.9462 67.8376 34.8856C67.8161 34.8231 67.7751 34.7665 67.7145 34.7157C67.654 34.663 67.569 34.6112 67.4597 34.5604C67.3503 34.5096 67.2087 34.4569 67.0349 34.4022C66.8415 34.3397 66.6579 34.2694 66.4841 34.1913C66.3122 34.1132 66.1599 34.0223 66.027 33.9188C65.8962 33.8134 65.7927 33.6913 65.7165 33.5526C65.6423 33.4139 65.6052 33.2528 65.6052 33.0692C65.6052 32.8915 65.6442 32.7303 65.7224 32.5858C65.8005 32.4393 65.9099 32.3143 66.0505 32.2108C66.1911 32.1053 66.3571 32.0243 66.5485 31.9677C66.7419 31.911 66.9538 31.8827 67.1843 31.8827C67.4987 31.8827 67.7731 31.9393 68.0075 32.0526C68.2419 32.1659 68.4235 32.3212 68.5524 32.5184C68.6833 32.7157 68.7487 32.9413 68.7487 33.1952H67.8757C67.8757 33.0702 67.8493 32.9608 67.7966 32.8671C67.7458 32.7714 67.6677 32.6962 67.5622 32.6415C67.4587 32.5868 67.3278 32.5594 67.1696 32.5594C67.0173 32.5594 66.8903 32.5829 66.7888 32.6298C66.6872 32.6747 66.611 32.7362 66.5602 32.8143C66.5095 32.8905 66.4841 32.9764 66.4841 33.0721C66.4841 33.1444 66.5016 33.2098 66.5368 33.2684C66.5739 33.327 66.6286 33.3817 66.7009 33.4325C66.7731 33.4833 66.862 33.5311 66.9675 33.576C67.0729 33.621 67.195 33.6649 67.3337 33.7079C67.5661 33.7782 67.7702 33.8573 67.946 33.9452C68.1237 34.0331 68.2722 34.1317 68.3913 34.2411C68.5104 34.3505 68.6003 34.4745 68.6608 34.6132C68.7214 34.7518 68.7516 34.9091 68.7516 35.0848C68.7516 35.2704 68.7155 35.4364 68.6432 35.5829C68.571 35.7294 68.4665 35.8534 68.3298 35.955C68.1931 36.0565 68.03 36.1337 67.8405 36.1864C67.6511 36.2391 67.4391 36.2655 67.2048 36.2655C66.9938 36.2655 66.7858 36.2382 66.5807 36.1835C66.3757 36.1268 66.1891 36.0419 66.0212 35.9286C65.8552 35.8153 65.7224 35.6708 65.6227 35.495C65.5231 35.3192 65.4733 35.1112 65.4733 34.871H66.3552C66.3552 35.0038 66.3757 35.1161 66.4167 35.2079C66.4577 35.2997 66.5153 35.3739 66.5895 35.4305C66.6657 35.4872 66.7556 35.5282 66.8591 35.5536C66.9645 35.579 67.0798 35.5917 67.2048 35.5917C67.3571 35.5917 67.4821 35.5702 67.5798 35.5272C67.6794 35.4843 67.7526 35.4247 67.7995 35.3485C67.8483 35.2723 67.8727 35.1864 67.8727 35.0907Z" fill="#AFB1B8"/>
<path d="M24.7302 31.9413H25.7302V30.9413H24.7302V31.9413ZM24.7302 36.2069V37.2069H25.7302V36.2069H24.7302ZM23.8513 36.2069H22.8513V37.2069H23.8513V36.2069ZM23.8513 31.9413V30.9413H22.8513V31.9413H23.8513ZM26.4294 33.7635H27.4294V32.7635H26.4294V33.7635ZM26.4294 34.4491V35.4491H27.4294V34.4491H26.4294ZM24.4899 34.4491H23.4899V35.4491H24.4899V34.4491ZM24.4899 33.7635V32.7635H23.4899V33.7635H24.4899ZM26.6345 31.9413H27.6345V30.9413H26.6345V31.9413ZM26.6345 32.6298V33.6298H27.6345V32.6298H26.6345ZM24.4899 32.6298H23.4899V33.6298H24.4899V32.6298ZM24.4899 31.9413V30.9413H23.4899V31.9413H24.4899ZM23.7302 31.9413V36.2069H25.7302V31.9413H23.7302ZM24.7302 35.2069H23.8513V37.2069H24.7302V35.2069ZM24.8513 36.2069V31.9413H22.8513V36.2069H24.8513ZM23.8513 32.9413H24.7302V30.9413H23.8513V32.9413ZM25.4294 33.7635V34.4491H27.4294V33.7635H25.4294ZM26.4294 33.4491H24.4899V35.4491H26.4294V33.4491ZM25.4899 34.4491V33.7635H23.4899V34.4491H25.4899ZM24.4899 34.7635H26.4294V32.7635H24.4899V34.7635ZM25.6345 31.9413V32.6298H27.6345V31.9413H25.6345ZM26.6345 31.6298H24.4899V33.6298H26.6345V31.6298ZM25.4899 32.6298V31.9413H23.4899V32.6298H25.4899ZM24.4899 32.9413H26.6345V30.9413H24.4899V32.9413ZM30.1442 35.7089L30.8908 36.3742L30.8943 36.3702L30.1442 35.7089ZM29.57 36.1219L29.1751 35.2032L29.1722 35.2045L29.57 36.1219ZM28.0993 36.1219L27.7015 37.0394L27.7044 37.0407L28.0993 36.1219ZM27.5251 35.7089L26.779 36.3747L26.7826 36.3787L27.5251 35.7089ZM27.1472 35.0497L26.2006 35.3724L26.2029 35.3788L27.1472 35.0497ZM27.1472 33.1014L28.0929 33.4263L28.0937 33.4241L27.1472 33.1014ZM27.5192 32.4423L26.7731 31.7764L26.7692 31.7809L27.5192 32.4423ZM28.0934 32.0262L27.6986 31.1075L27.6956 31.1088L28.0934 32.0262ZM29.5641 32.0262L29.1663 32.9437L29.1693 32.945L29.5641 32.0262ZM30.1384 32.4423L29.3883 33.1036L29.3923 33.1081L30.1384 32.4423ZM30.5134 33.1014L29.5668 33.4241L29.5698 33.4328L30.5134 33.1014ZM29.2243 32.6737L28.7591 33.559L28.7711 33.5651L29.2243 32.6737ZM28.4333 32.6737L28.8927 33.5619L28.8984 33.5589L28.4333 32.6737ZM28.1432 32.9374L27.3176 32.3732L27.3112 32.3827L28.1432 32.9374ZM27.9645 34.7743L26.9913 35.0039L26.9919 35.0064L27.9645 34.7743ZM28.1462 35.2108L27.3162 35.7687L27.3205 35.775L28.1462 35.2108ZM29.5202 35.2108L30.3523 35.7655L30.3564 35.7592L29.5202 35.2108ZM29.6989 34.7743L30.6716 35.0064L30.6722 35.0039L29.6989 34.7743ZM29.6481 33.9745V34.1766H31.6481V33.9745H29.6481ZM29.6481 34.1766C29.6481 34.4114 29.6163 34.5907 29.5698 34.727L31.4628 35.3724C31.5921 34.993 31.6481 34.5903 31.6481 34.1766H29.6481ZM29.5698 34.727C29.5191 34.8756 29.4569 34.9763 29.3942 35.0475L30.8943 36.3702C31.1518 36.0781 31.3377 35.7394 31.4628 35.3724L29.5698 34.727ZM29.3977 35.0435C29.3355 35.1133 29.2644 35.1648 29.1751 35.2032L29.9649 37.0407C30.3209 36.8876 30.6326 36.6638 30.8907 36.3742L29.3977 35.0435ZM29.1722 35.2045C29.0913 35.2395 28.9838 35.2655 28.8347 35.2655V37.2655C29.2245 37.2655 29.6073 37.1958 29.9678 37.0394L29.1722 35.2045ZM28.8347 35.2655C28.6887 35.2655 28.5797 35.24 28.4942 35.2032L27.7044 37.0407C28.0642 37.1953 28.4455 37.2655 28.8347 37.2655V35.2655ZM28.4971 35.2045C28.4085 35.1661 28.3344 35.1131 28.2676 35.039L26.7826 36.3787C27.04 36.664 27.3487 36.8864 27.7015 37.0394L28.4971 35.2045ZM28.2712 35.043C28.2067 34.9707 28.1433 34.8693 28.0915 34.7206L26.2029 35.3788C26.3307 35.7457 26.5193 36.0837 26.779 36.3747L28.2712 35.043ZM28.0937 34.727C28.0472 34.5907 28.0153 34.4114 28.0153 34.1766H26.0153C26.0153 34.5903 26.0713 34.993 26.2006 35.3724L28.0937 34.727ZM28.0153 34.1766V33.9745H26.0153V34.1766H28.0153ZM28.0153 33.9745C28.0153 33.7368 28.0475 33.5587 28.0929 33.4263L26.2014 32.7766C26.0711 33.1559 26.0153 33.5598 26.0153 33.9745H28.0153ZM28.0937 33.4241C28.1443 33.2755 28.2065 33.1748 28.2693 33.1036L26.7692 31.7809C26.5116 32.073 26.3258 32.4117 26.2006 32.7788L28.0937 33.4241ZM28.2653 33.1081C28.3321 33.0332 28.4052 32.981 28.4913 32.9437L27.6956 31.1088C27.3403 31.2629 27.0305 31.488 26.7731 31.7764L28.2653 33.1081ZM28.4883 32.945C28.5738 32.9082 28.6828 32.8827 28.8288 32.8827V30.8827C28.4396 30.8827 28.0584 30.9529 27.6986 31.1075L28.4883 32.945ZM28.8288 32.8827C28.978 32.8827 29.0855 32.9087 29.1663 32.9437L29.962 31.1088C29.6014 30.9524 29.2187 30.8827 28.8288 30.8827V32.8827ZM29.1693 32.945C29.256 32.9823 29.3261 33.0331 29.3883 33.1036L30.8884 31.7809C30.6303 31.4882 30.3176 31.2616 29.959 31.1075L29.1693 32.945ZM29.3923 33.1081C29.4553 33.1787 29.517 33.2779 29.5669 33.4241L31.4599 32.7788C31.3339 32.4094 31.1457 32.0691 30.8844 31.7764L29.3923 33.1081ZM29.5698 33.4328C29.6156 33.563 29.6481 33.7389 29.6481 33.9745H31.6481C31.6481 33.5577 31.5908 33.1516 31.4569 32.7701L29.5698 33.4328ZM30.7604 34.1766V33.9686H28.7604V34.1766H30.7604ZM30.7604 33.9686C30.7604 33.6846 30.735 33.4046 30.6716 33.1389L28.7262 33.6031C28.7448 33.6811 28.7604 33.7995 28.7604 33.9686H30.7604ZM30.6716 33.1389C30.6089 32.8763 30.5064 32.6125 30.3429 32.3732L28.6916 33.5016C28.6883 33.4966 28.7069 33.5219 28.7262 33.6031L30.6716 33.1389ZM30.3429 32.3732C30.1776 32.1313 29.9567 31.9243 29.6776 31.7823L28.7711 33.5651C28.7493 33.554 28.7302 33.5406 28.715 33.5269C28.7001 33.5135 28.6929 33.5035 28.6916 33.5016L30.3429 32.3732ZM29.6894 31.7885C29.4117 31.6425 29.1163 31.5829 28.8288 31.5829V33.5829C28.8349 33.5829 28.8294 33.5835 28.8152 33.5802C28.8005 33.5768 28.7807 33.5703 28.7592 33.5589L29.6894 31.7885ZM28.8288 31.5829C28.5412 31.5829 28.2459 31.6425 27.9682 31.7885L28.8984 33.5589C28.8768 33.5703 28.8571 33.5768 28.8424 33.5802C28.8282 33.5835 28.8227 33.5829 28.8288 33.5829V31.5829ZM27.9739 31.7855C27.6976 31.9284 27.4803 32.135 27.3176 32.3732L28.9689 33.5016C28.9687 33.5018 28.9625 33.5107 28.9485 33.5235C28.9341 33.5366 28.9152 33.5503 28.8927 33.5619L27.9739 31.7855ZM27.3112 32.3827C27.1532 32.6197 27.0536 32.8801 26.9919 33.1389L28.9372 33.6031C28.9575 33.5181 28.9771 33.4894 28.9753 33.4921L27.3112 32.3827ZM26.9919 33.1389C26.9284 33.4046 26.903 33.6846 26.903 33.9686H28.903C28.903 33.7995 28.9186 33.6811 28.9372 33.6031L26.9919 33.1389ZM26.903 33.9686V34.1766H28.903V33.9686H26.903ZM26.903 34.1766C26.903 34.4597 26.9286 34.7385 26.9913 35.0039L28.9378 34.5446C28.9184 34.4624 28.903 34.3428 28.903 34.1766H26.903ZM26.9919 35.0064C27.0544 35.2686 27.1561 35.5304 27.3162 35.7687L28.9761 34.653C28.9762 34.6531 28.9714 34.6459 28.964 34.6282C28.9565 34.6102 28.9468 34.5823 28.9372 34.5422L26.9919 35.0064ZM27.3205 35.775C27.4842 36.0146 27.7014 36.2194 27.974 36.3627L28.9043 34.5922C28.9229 34.602 28.9394 34.6138 28.9525 34.6258C28.9653 34.6374 28.9712 34.6458 28.9718 34.6466L27.3205 35.775ZM27.974 36.3627C28.2517 36.5086 28.5471 36.5682 28.8347 36.5682V34.5682C28.8285 34.5682 28.834 34.5676 28.8483 34.5709C28.863 34.5743 28.8827 34.5808 28.9043 34.5922L27.974 36.3627ZM28.8347 36.5682C29.1222 36.5682 29.4176 36.5086 29.6953 36.3627L28.765 34.5922C28.7866 34.5808 28.8063 34.5743 28.8211 34.5709C28.8353 34.5676 28.8408 34.5682 28.8347 34.5682V36.5682ZM29.6953 36.3627C29.9705 36.218 30.1892 36.0101 30.3523 35.7655L28.6882 34.6561C28.6902 34.653 28.6978 34.6425 28.7124 34.6291C28.7272 34.6155 28.7453 34.6026 28.765 34.5922L29.6953 36.3627ZM30.3564 35.7592C30.5112 35.5232 30.6099 35.2648 30.6716 35.0064L28.7262 34.5422C28.7059 34.6275 28.6855 34.6601 28.684 34.6625L30.3564 35.7592ZM30.6722 35.0039C30.7348 34.7385 30.7604 34.4597 30.7604 34.1766H28.7604C28.7604 34.3428 28.745 34.4624 28.7256 34.5446L30.6722 35.0039ZM33.4665 34.8856L32.5208 35.2107L32.527 35.2288L32.5339 35.2466L33.4665 34.8856ZM33.3434 34.7157L32.6867 35.4698L32.6937 35.4759L32.7008 35.4819L33.3434 34.7157ZM32.6638 34.4022L32.3562 35.3538L32.3637 35.3561L32.6638 34.4022ZM32.113 34.1913L31.6992 35.1017L31.703 35.1034L32.113 34.1913ZM31.6559 33.9188L31.0284 34.6974L31.0348 34.7025L31.0412 34.7076L31.6559 33.9188ZM31.3454 33.5526L30.4637 34.0245L30.4689 34.0341L31.3454 33.5526ZM31.3513 32.5858L32.231 33.0613L32.2336 33.0564L31.3513 32.5858ZM31.6794 32.2108L32.2722 33.0162L32.2794 33.0108L31.6794 32.2108ZM32.1774 31.9677L31.8963 31.008L31.8937 31.0088L32.1774 31.9677ZM34.1813 32.5184L33.3442 33.0655L33.348 33.0712L34.1813 32.5184ZM34.3776 33.1952V34.1952H35.3776V33.1952H34.3776ZM33.5046 33.1952H32.5046V34.1952H33.5046V33.1952ZM33.4255 32.8671L32.5421 33.3358L32.5479 33.3466L32.5539 33.3573L33.4255 32.8671ZM33.1911 32.6415L32.724 33.5257L32.7308 33.5292L33.1911 32.6415ZM32.4177 32.6298L32.8222 33.5443L32.8295 33.5411L32.8367 33.5377L32.4177 32.6298ZM32.1891 32.8143L33.0213 33.3691L33.0276 33.3593L32.1891 32.8143ZM32.1657 33.2684L31.3082 33.7829L31.3144 33.7933L31.3209 33.8035L32.1657 33.2684ZM32.9626 33.7079L32.6666 34.6631L32.673 34.665L32.9626 33.7079ZM33.5749 33.9452L33.1277 34.8396L33.1316 34.8416L33.5749 33.9452ZM32.2097 36.1835L31.9434 37.1474L31.952 37.1497L32.2097 36.1835ZM31.6501 35.9286L31.0864 36.7546L31.0909 36.7577L31.6501 35.9286ZM31.1022 34.871V33.871H30.1022V34.871H31.1022ZM31.9841 34.871H32.9841V33.871H31.9841V34.871ZM32.2184 35.4305L31.6117 36.2256L31.6217 36.233L32.2184 35.4305ZM32.488 35.5536L32.2498 36.5248L32.2539 36.5258L32.488 35.5536ZM33.2087 35.5272L32.8126 34.609L32.8059 34.6119L33.2087 35.5272ZM33.4284 35.3485L32.5865 34.8088L32.5816 34.8166L32.5767 34.8244L33.4284 35.3485ZM34.5016 35.0907C34.5016 34.9121 34.4741 34.7184 34.3991 34.5246L32.5339 35.2466C32.5058 35.1739 32.5016 35.117 32.5016 35.0907H34.5016ZM34.4122 34.5605C34.321 34.2953 34.1584 34.0941 33.9861 33.9495L32.7008 35.4819C32.6496 35.4389 32.569 35.351 32.5208 35.2107L34.4122 34.5605ZM34.0002 33.9616C33.8427 33.8244 33.6662 33.7261 33.5097 33.6534L32.6675 35.4674C32.6809 35.4737 32.6914 35.4789 32.6994 35.4831C32.7073 35.4873 32.7121 35.4901 32.7141 35.4913C32.7161 35.4926 32.7145 35.4917 32.7102 35.4886C32.7058 35.4855 32.6976 35.4793 32.6867 35.4698L34.0002 33.9616ZM33.5097 33.6534C33.3466 33.5777 33.1604 33.5102 32.9639 33.4483L32.3637 35.3561C32.5148 35.4037 32.6118 35.4416 32.6675 35.4674L33.5097 33.6534ZM32.9713 33.4507C32.8105 33.3987 32.6613 33.3413 32.5229 33.2792L31.703 35.1034C31.9124 35.1975 32.1303 35.2807 32.3562 35.3537L32.9713 33.4507ZM32.5268 33.2809C32.4179 33.2314 32.3346 33.1799 32.2707 33.1301L31.0412 34.7076C31.2429 34.8648 31.4643 34.9949 31.6992 35.1017L32.5268 33.2809ZM32.2835 33.1402C32.2478 33.1115 32.2314 33.0885 32.2219 33.0712L30.4689 34.0341C30.6117 34.2941 30.8024 34.5153 31.0284 34.6974L32.2835 33.1402ZM32.2271 33.0807C32.2302 33.0867 32.2326 33.092 32.2341 33.0963C32.2357 33.1005 32.2363 33.1031 32.2364 33.1033C32.2365 33.1039 32.2341 33.0937 32.2341 33.0692H30.2341C30.2341 33.3898 30.2998 33.7181 30.4637 34.0245L32.2271 33.0807ZM32.2341 33.0692C32.2341 33.054 32.2357 33.0488 32.2352 33.0507C32.235 33.0514 32.2346 33.0531 32.2337 33.0553C32.2329 33.0576 32.2319 33.0596 32.231 33.0613L30.4716 32.1103C30.3081 32.4127 30.2341 32.7394 30.2341 33.0692H32.2341ZM32.2336 33.0564C32.2378 33.0486 32.2455 33.0358 32.2722 33.0162L31.0866 31.4055C30.832 31.5928 30.621 31.8301 30.4689 32.1152L32.2336 33.0564ZM32.2794 33.0108C32.3129 32.9857 32.3685 32.954 32.4612 32.9265L31.8937 31.0088C31.6035 31.0946 31.3271 31.225 31.0794 31.4108L32.2794 33.0108ZM32.4585 32.9273C32.5486 32.901 32.6644 32.8827 32.8132 32.8827V30.8827C32.501 30.8827 32.193 30.9211 31.8963 31.008L32.4585 32.9273ZM32.8132 32.8827C33.0078 32.8827 33.1279 32.9175 33.2012 32.953L34.0716 31.1523C33.6762 30.9612 33.2475 30.8827 32.8132 30.8827V32.8827ZM33.2012 32.953C33.2897 32.9957 33.3249 33.0359 33.3442 33.0655L35.0185 31.9714C34.78 31.6064 34.4519 31.3361 34.0716 31.1523L33.2012 32.953ZM33.348 33.0712C33.3622 33.0926 33.3776 33.123 33.3776 33.1952H35.3776C35.3776 32.7596 35.2622 32.3388 35.0147 31.9656L33.348 33.0712ZM34.3776 32.1952H33.5046V34.1952H34.3776V32.1952ZM34.5046 33.1952C34.5046 32.9265 34.4468 32.6429 34.2971 32.3768L32.5539 33.3573C32.5097 33.2787 32.5046 33.2138 32.5046 33.1952H34.5046ZM34.3088 32.3983C34.1537 32.1059 33.919 31.8924 33.6514 31.7537L32.7308 33.5292C32.7063 33.5165 32.6718 33.4945 32.6353 33.4594C32.5982 33.4237 32.5664 33.3814 32.5421 33.3358L34.3088 32.3983ZM33.6582 31.7573C33.3691 31.6046 33.0649 31.5594 32.7985 31.5594V33.5594C32.821 33.5594 32.8235 33.5615 32.8108 33.5588C32.7974 33.556 32.7656 33.5477 32.724 33.5257L33.6582 31.7573ZM32.7985 31.5594C32.5509 31.5594 32.27 31.5965 31.9986 31.7218L32.8367 33.5377C32.8012 33.5541 32.7768 33.5593 32.7706 33.5604C32.7646 33.5615 32.7727 33.5594 32.7985 33.5594V31.5594ZM32.0132 31.7152C31.7687 31.8233 31.5261 31.9995 31.3507 32.2693L33.0276 33.3593C32.9538 33.4729 32.8635 33.526 32.8222 33.5443L32.0132 31.7152ZM31.3571 32.2596C31.1917 32.5078 31.113 32.7885 31.113 33.0721H33.113C33.113 33.1137 33.1073 33.1642 33.091 33.2193C33.0747 33.2747 33.0503 33.3254 33.0212 33.369L31.3571 32.2596ZM31.113 33.0721C31.113 33.3148 31.1744 33.5599 31.3082 33.7829L33.0232 32.7539C33.0867 32.8598 33.113 32.974 33.113 33.0721H31.113ZM31.3209 33.8035C31.4448 33.9992 31.6031 34.1441 31.7548 34.2507L32.9047 32.6143C32.9119 32.6193 32.9608 32.6549 33.0105 32.7334L31.3209 33.8035ZM31.7548 34.2507C31.8984 34.3516 32.0526 34.4314 32.2045 34.4961L32.9882 32.656C32.9598 32.6439 32.9391 32.6337 32.9247 32.626C32.9103 32.6182 32.9043 32.614 32.9047 32.6143L31.7548 34.2507ZM32.2045 34.4961C32.3483 34.5573 32.5035 34.6125 32.6666 34.6631L33.2586 32.7527C33.1443 32.7173 33.0554 32.6846 32.9882 32.656L32.2045 34.4961ZM32.673 34.665C32.8633 34.7226 33.0127 34.7822 33.1277 34.8396L34.0221 33.0508C33.7855 32.9324 33.5267 32.8338 33.2521 32.7507L32.673 34.665ZM33.1316 34.8416C33.2429 34.8966 33.3081 34.9449 33.3439 34.9777L34.6965 33.5044C34.494 33.3185 34.2624 33.1696 34.0182 33.0488L33.1316 34.8416ZM33.3439 34.9777C33.3676 34.9995 33.3723 35.0109 33.3733 35.0133L35.2062 34.213C35.0861 33.938 34.9111 33.7014 34.6965 33.5044L33.3439 34.9777ZM33.3733 35.0133C33.3705 35.007 33.3806 35.0247 33.3806 35.0848H35.3806C35.3806 34.7934 35.33 34.4967 35.2062 34.213L33.3733 35.0133ZM33.3806 35.0848C33.3806 35.1126 33.3779 35.1288 33.3763 35.1358C33.3749 35.1425 33.374 35.1431 33.3753 35.1405L35.169 36.0253C35.3178 35.7236 35.3806 35.4029 35.3806 35.0848H33.3806ZM33.3753 35.1405C33.3749 35.1415 33.3747 35.1417 33.3748 35.1415C33.3749 35.1413 33.375 35.1413 33.3748 35.1414C33.3747 35.1416 33.3739 35.1426 33.3721 35.1442C33.3703 35.1459 33.3672 35.1486 33.3624 35.1522L34.555 36.7577C34.8134 36.5657 35.0235 36.3202 35.169 36.0253L33.3753 35.1405ZM33.3624 35.1522C33.3382 35.1701 33.2904 35.1982 33.2013 35.223L33.7376 37.1498C34.0273 37.0691 34.3057 36.9429 34.555 36.7577L33.3624 35.1522ZM33.2013 35.223C33.1139 35.2473 32.9942 35.2655 32.8337 35.2655V37.2655C33.1419 37.2655 33.446 37.2309 33.7376 37.1498L33.2013 35.223ZM32.8337 35.2655C32.7103 35.2655 32.5889 35.2497 32.4673 35.2172L31.952 37.1497C32.2406 37.2267 32.5352 37.2655 32.8337 37.2655V35.2655ZM32.4759 35.2196C32.3698 35.1903 32.2831 35.1493 32.2092 35.0995L31.0909 36.7577C31.353 36.9344 31.6393 37.0634 31.9434 37.1474L32.4759 35.2196ZM32.2137 35.1026C32.1746 35.0759 32.1464 35.0455 32.1217 35.002L30.3816 35.988C30.5562 36.296 30.7935 36.5547 31.0864 36.7546L32.2137 35.1026ZM32.1217 35.002C32.1207 35.0002 32.1165 34.9926 32.1121 34.9743C32.1075 34.9552 32.1022 34.9221 32.1022 34.871H30.1022C30.1022 35.2513 30.182 35.6358 30.3816 35.988L32.1217 35.002ZM31.1022 35.871H31.9841V33.871H31.1022V35.871ZM30.9841 34.871C30.9841 35.1014 31.019 35.3615 31.1326 35.6158L32.9586 34.7999C32.9748 34.8361 32.981 34.8631 32.9832 34.8752C32.9853 34.887 32.9841 34.8866 32.9841 34.871H30.9841ZM31.1326 35.6158C31.2364 35.8481 31.3946 36.0597 31.6118 36.2255L32.8251 34.6356C32.8939 34.6881 32.9368 34.7512 32.9586 34.7999L31.1326 35.6158ZM31.6217 36.233C31.8174 36.3785 32.0326 36.4715 32.2498 36.5248L32.7262 34.5824C32.7363 34.5849 32.7719 34.5959 32.8151 34.6281L31.6217 36.233ZM32.2539 36.5258C32.4466 36.5722 32.6415 36.5917 32.8337 36.5917V34.5917C32.7758 34.5917 32.7403 34.5858 32.722 34.5814L32.2539 36.5258ZM32.8337 36.5917C33.0698 36.5917 33.3447 36.5599 33.6114 36.4425L32.8059 34.6119C32.8442 34.5951 32.8691 34.5906 32.8723 34.59C32.8756 34.5895 32.864 34.5917 32.8337 34.5917V36.5917ZM33.6048 36.4454C33.8523 36.3387 34.1043 36.1583 34.2801 35.8726L32.5767 34.8244C32.6588 34.6911 32.7643 34.6298 32.8126 34.609L33.6048 36.4454ZM34.2703 35.8882C34.4284 35.6415 34.5016 35.3661 34.5016 35.0907H32.5016C32.5016 35.0067 32.526 34.9032 32.5865 34.8088L34.2703 35.8882ZM36.8854 31.9413H37.8854V30.9413H36.8854V31.9413ZM36.8854 36.2069V37.2069H37.8854V36.2069H36.8854ZM36.0095 36.2069H35.0095V37.2069H36.0095V36.2069ZM36.0095 31.9413V30.9413H35.0095V31.9413H36.0095ZM38.1979 31.9413H39.1979V30.9413H38.1979V31.9413ZM38.1979 32.6298V33.6298H39.1979V32.6298H38.1979ZM34.7175 32.6298H33.7175V33.6298H34.7175V32.6298ZM34.7175 31.9413V30.9413H33.7175V31.9413H34.7175ZM35.8854 31.9413V36.2069H37.8854V31.9413H35.8854ZM36.8854 35.2069H36.0095V37.2069H36.8854V35.2069ZM37.0095 36.2069V31.9413H35.0095V36.2069H37.0095ZM36.0095 32.9413H36.8854V30.9413H36.0095V32.9413ZM37.1979 31.9413V32.6298H39.1979V31.9413H37.1979ZM38.1979 31.6298H34.7175V33.6298H38.1979V31.6298ZM35.7175 32.6298V31.9413H33.7175V32.6298H35.7175ZM34.7175 32.9413H38.1979V30.9413H34.7175V32.9413ZM41.5612 35.5214H42.5612V34.5214H41.5612V35.5214ZM41.5612 36.2069V37.2069H42.5612V36.2069H41.5612ZM39.2907 36.2069H38.2907V37.2069H39.2907V36.2069ZM39.2907 35.5214V34.5214H38.2907V35.5214H39.2907ZM39.5778 31.9413H40.5778V30.9413H39.5778V31.9413ZM39.5778 36.2069V37.2069H40.5778V36.2069H39.5778ZM38.6989 36.2069H37.6989V37.2069H38.6989V36.2069ZM38.6989 31.9413V30.9413H37.6989V31.9413H38.6989ZM41.2653 33.6786H42.2653V32.6786H41.2653V33.6786ZM41.2653 34.3466V35.3466H42.2653V34.3466H41.2653ZM39.2907 34.3466H38.2907V35.3466H39.2907V34.3466ZM39.2907 33.6786V32.6786H38.2907V33.6786H39.2907ZM41.5583 31.9413H42.5583V30.9413H41.5583V31.9413ZM41.5583 32.6298V33.6298H42.5583V32.6298H41.5583ZM39.2907 32.6298H38.2907V33.6298H39.2907V32.6298ZM39.2907 31.9413V30.9413H38.2907V31.9413H39.2907ZM40.5612 35.5214V36.2069H42.5612V35.5214H40.5612ZM41.5612 35.2069H39.2907V37.2069H41.5612V35.2069ZM40.2907 36.2069V35.5214H38.2907V36.2069H40.2907ZM39.2907 36.5214H41.5612V34.5214H39.2907V36.5214ZM38.5778 31.9413V36.2069H40.5778V31.9413H38.5778ZM39.5778 35.2069H38.6989V37.2069H39.5778V35.2069ZM39.6989 36.2069V31.9413H37.6989V36.2069H39.6989ZM38.6989 32.9413H39.5778V30.9413H38.6989V32.9413ZM40.2653 33.6786V34.3466H42.2653V33.6786H40.2653ZM41.2653 33.3466H39.2907V35.3466H41.2653V33.3466ZM40.2907 34.3466V33.6786H38.2907V34.3466H40.2907ZM39.2907 34.6786H41.2653V32.6786H39.2907V34.6786ZM40.5583 31.9413V32.6298H42.5583V31.9413H40.5583ZM41.5583 31.6298H39.2907V33.6298H41.5583V31.6298ZM40.2907 32.6298V31.9413H38.2907V32.6298H40.2907ZM39.2907 32.9413H41.5583V30.9413H39.2907V32.9413ZM42.0739 31.9413V30.9413H41.0739V31.9413H42.0739ZM44.5056 32.0878L44.1209 33.0108L44.1237 33.012L44.5056 32.0878ZM45.1237 33.8163L44.2208 33.3863L44.2187 33.391L45.1237 33.8163ZM44.7985 34.2235L45.4109 35.0141L45.4125 35.0129L44.7985 34.2235ZM44.3093 34.4813L43.9842 33.5356L43.9115 33.5606L43.8435 33.5964L44.3093 34.4813ZM44.0309 34.6278V35.6278H44.278L44.4967 35.5127L44.0309 34.6278ZM42.6481 34.6278L41.6482 34.6364L41.6566 35.6278H42.6481V34.6278ZM42.6423 33.9423V32.9423H41.6337L41.6423 33.9508L42.6423 33.9423ZM44.2829 33.6317L43.403 33.1566L43.3993 33.1634L43.3957 33.1704L44.2829 33.6317ZM42.9528 32.6298V31.6298H41.9528V32.6298H42.9528ZM42.9528 36.2069V37.2069H43.9528V36.2069H42.9528ZM42.0739 36.2069H41.0739V37.2069H42.0739V36.2069ZM44.4587 36.2069L43.5684 36.6623L43.847 37.2069H44.4587V36.2069ZM43.486 34.3055L43.4797 33.3056L41.8565 33.3158L42.5957 34.761L43.486 34.3055ZM44.4147 34.2997L45.2992 33.8331L45.0158 33.2959L44.4084 33.2997L44.4147 34.2997ZM45.3991 36.1659H46.3991V35.9183L46.2836 35.6993L45.3991 36.1659ZM45.3991 36.2069V37.2069H46.3991V36.2069H45.3991ZM42.0739 32.9413H43.6647V30.9413H42.0739V32.9413ZM43.6647 32.9413C43.8949 32.9413 44.0378 32.9762 44.1209 33.0108L44.8902 31.1647C44.5046 31.004 44.087 30.9413 43.6647 30.9413V32.9413ZM44.1237 33.012C44.1975 33.0425 44.2126 33.0673 44.2171 33.0741L45.8838 31.9686C45.6345 31.5927 45.2862 31.3283 44.8875 31.1636L44.1237 33.012ZM44.2171 33.0741C44.2175 33.0747 44.2224 33.0817 44.2278 33.1018C44.2336 33.1233 44.2409 33.1632 44.2409 33.2274H46.2409C46.2409 32.7944 46.141 32.3563 45.8838 31.9686L44.2171 33.0741ZM44.2409 33.2274C44.2409 33.2852 44.2359 33.3253 44.2308 33.3508C44.2258 33.3759 44.2209 33.3862 44.2209 33.3864L46.0266 34.2462C46.1829 33.9179 46.2409 33.5675 46.2409 33.2274H44.2409ZM44.2187 33.391C44.2091 33.4113 44.2001 33.4221 44.1846 33.4342L45.4125 35.0129C45.6782 34.8062 45.886 34.5455 46.0288 34.2416L44.2187 33.391ZM44.1861 33.433C44.1446 33.4652 44.0814 33.5022 43.9842 33.5356L44.6343 35.427C44.9121 35.3315 45.1751 35.1967 45.4109 35.0141L44.1861 33.433ZM43.8435 33.5964L43.5652 33.7429L44.4967 35.5127L44.775 35.3662L43.8435 33.5964ZM44.0309 33.6278H42.6481V35.6278H44.0309V33.6278ZM43.6481 34.6193L43.6422 33.9337L41.6423 33.9508L41.6482 34.6364L43.6481 34.6193ZM42.6423 34.9423H43.6706V32.9423H42.6423V34.9423ZM43.6706 34.9423C43.9367 34.9423 44.2403 34.8959 44.5285 34.7407L43.5803 32.9798C43.6653 32.934 43.7131 32.9423 43.6706 32.9423V34.9423ZM44.5285 34.7407C44.7977 34.5957 45.0222 34.3775 45.1701 34.0931L43.3957 33.1704C43.4164 33.1306 43.4448 33.0907 43.4806 33.055C43.516 33.0195 43.5514 32.9953 43.5803 32.9798L44.5285 34.7407ZM45.1628 34.1069C45.3062 33.8412 45.362 33.5597 45.362 33.2919H43.362C43.362 33.2818 43.365 33.2269 43.403 33.1566L45.1628 34.1069ZM45.362 33.2919C45.362 33.0319 45.3135 32.7514 45.1767 32.4832L43.3949 33.3916C43.3598 33.3226 43.362 33.2784 43.362 33.2919H45.362ZM45.1767 32.4832C45.0261 32.1878 44.7921 31.9624 44.5083 31.8178L43.6005 33.5999C43.5671 33.5829 43.5269 33.5563 43.4873 33.5171C43.4474 33.4777 43.4166 33.4341 43.3949 33.3916L45.1767 32.4832ZM44.5083 31.8178C44.2243 31.6731 43.9268 31.6298 43.6647 31.6298V33.6298C43.6876 33.6298 43.6913 33.6318 43.6804 33.6295C43.6689 33.6272 43.6397 33.6199 43.6005 33.5999L44.5083 31.8178ZM43.6647 31.6298H42.9528V33.6298H43.6647V31.6298ZM41.9528 32.6298V36.2069H43.9528V32.6298H41.9528ZM42.9528 35.2069H42.0739V37.2069H42.9528V35.2069ZM43.0739 36.2069V31.9413H41.0739V36.2069H43.0739ZM45.349 35.7515L44.3763 33.8501L42.5957 34.761L43.5684 36.6623L45.349 35.7515ZM43.4923 35.3055L44.421 35.2997L44.4084 33.2997L43.4797 33.3056L43.4923 35.3055ZM43.5302 34.7662L44.5146 36.6324L46.2836 35.6993L45.2992 33.8331L43.5302 34.7662ZM44.3991 36.1659V36.2069H46.3991V36.1659H44.3991ZM45.3991 35.2069H44.4587V37.2069H45.3991V35.2069ZM47.986 34.6864H46.986V35.6864H47.986V34.6864ZM47.986 34.0009V33.0009H46.986V34.0009H47.986ZM49.4831 33.9188L49.9434 34.8066L49.9498 34.8032L49.9562 34.7998L49.4831 33.9188ZM48.2907 32.6298V31.6298H47.2907V32.6298H48.2907ZM48.2907 36.2069V37.2069H49.2907V36.2069H48.2907ZM47.4118 36.2069H46.4118V37.2069H47.4118V36.2069ZM47.4118 31.9413V30.9413H46.4118V31.9413H47.4118ZM49.9313 32.1229L49.4783 33.0145L49.487 33.0188L49.9313 32.1229ZM49.9313 34.5223L49.517 33.6122L49.5142 33.6135L49.9313 34.5223ZM49.0729 33.6864H47.986V35.6864H49.0729V33.6864ZM48.986 34.6864V34.0009H46.986V34.6864H48.986ZM47.986 35.0009H49.0729V33.0009H47.986V35.0009ZM49.0729 35.0009C49.3389 35.0009 49.6492 34.9591 49.9434 34.8066L49.0228 33.0311C49.0663 33.0085 49.0972 33.0014 49.1053 32.9998C49.1131 32.9982 49.104 33.0009 49.0729 33.0009V35.0009ZM49.9562 34.7998C50.2305 34.6525 50.4642 34.4271 50.6125 34.1246L48.8166 33.2443C48.8392 33.1981 48.8704 33.1537 48.9085 33.1151C48.9461 33.077 48.9827 33.0525 49.01 33.0378L49.9562 34.7998ZM50.6125 34.1246C50.7365 33.8715 50.7878 33.6056 50.7878 33.3475H48.7878C48.7878 33.3448 48.7881 33.3325 48.7923 33.3131C48.7966 33.2933 48.8043 33.2695 48.8166 33.2443L50.6125 34.1246ZM50.7878 33.3475C50.7878 33.0887 50.7372 32.8306 50.6277 32.5854L48.8014 33.4007C48.7962 33.389 48.7924 33.3771 48.7902 33.366C48.7879 33.3552 48.7878 33.3485 48.7878 33.3475H50.7878ZM50.6277 32.5854C50.4948 32.2878 50.2816 32.0504 50.0159 31.8831L48.9503 33.5756C48.9269 33.5609 48.8975 33.5378 48.8685 33.5048C48.8393 33.4715 48.8169 33.4354 48.8014 33.4007L50.6277 32.5854ZM50.0159 31.8831C49.7044 31.687 49.3658 31.6298 49.0729 31.6298V33.6298C49.116 33.6298 49.0508 33.6389 48.9503 33.5756L50.0159 31.8831ZM49.0729 31.6298H48.2907V33.6298H49.0729V31.6298ZM47.2907 32.6298V36.2069H49.2907V32.6298H47.2907ZM48.2907 35.2069H47.4118V37.2069H48.2907V35.2069ZM48.4118 36.2069V31.9413H46.4118V36.2069H48.4118ZM47.4118 32.9413H49.0729V30.9413H47.4118V32.9413ZM49.0729 32.9413C49.2879 32.9413 49.411 32.9802 49.4783 33.0144L50.3844 31.2314C49.9751 31.0234 49.5259 30.9413 49.0729 30.9413V32.9413ZM49.487 33.0188C49.5722 33.061 49.6055 33.1008 49.6253 33.1337L51.3389 32.1024C51.1048 31.7134 50.771 31.4231 50.3756 31.227L49.487 33.0188ZM49.6253 33.1337C49.6491 33.1733 49.6725 33.2327 49.6725 33.3417H51.6725C51.6725 32.9077 51.569 32.4847 51.3389 32.1024L49.6253 33.1337ZM49.6725 33.3417C49.6725 33.4586 49.6475 33.5053 49.6364 33.5228L51.3278 34.5902C51.5706 34.2054 51.6725 33.7756 51.6725 33.3417H49.6725ZM49.6364 33.5228C49.6247 33.5414 49.6 33.5744 49.517 33.6122L50.3457 35.4325C50.7431 35.2515 51.0856 34.974 51.3278 34.5902L49.6364 33.5228ZM49.5142 33.6135C49.4374 33.6487 49.301 33.6864 49.0729 33.6864V35.6864C49.5128 35.6864 49.9487 35.6147 50.3485 35.4312L49.5142 33.6135ZM54.1413 35.5214H55.1413V34.5214H54.1413V35.5214ZM54.1413 36.2069V37.2069H55.1413V36.2069H54.1413ZM51.8708 36.2069H50.8708V37.2069H51.8708V36.2069ZM51.8708 35.5214V34.5214H50.8708V35.5214H51.8708ZM52.1579 31.9413H53.1579V30.9413H52.1579V31.9413ZM52.1579 36.2069V37.2069H53.1579V36.2069H52.1579ZM51.279 36.2069H50.279V37.2069H51.279V36.2069ZM51.279 31.9413V30.9413H50.279V31.9413H51.279ZM53.8454 33.6786H54.8454V32.6786H53.8454V33.6786ZM53.8454 34.3466V35.3466H54.8454V34.3466H53.8454ZM51.8708 34.3466H50.8708V35.3466H51.8708V34.3466ZM51.8708 33.6786V32.6786H50.8708V33.6786H51.8708ZM54.1384 31.9413H55.1384V30.9413H54.1384V31.9413ZM54.1384 32.6298V33.6298H55.1384V32.6298H54.1384ZM51.8708 32.6298H50.8708V33.6298H51.8708V32.6298ZM51.8708 31.9413V30.9413H50.8708V31.9413H51.8708ZM53.1413 35.5214V36.2069H55.1413V35.5214H53.1413ZM54.1413 35.2069H51.8708V37.2069H54.1413V35.2069ZM52.8708 36.2069V35.5214H50.8708V36.2069H52.8708ZM51.8708 36.5214H54.1413V34.5214H51.8708V36.5214ZM51.1579 31.9413V36.2069H53.1579V31.9413H51.1579ZM52.1579 35.2069H51.279V37.2069H52.1579V35.2069ZM52.279 36.2069V31.9413H50.279V36.2069H52.279ZM51.279 32.9413H52.1579V30.9413H51.279V32.9413ZM52.8454 33.6786V34.3466H54.8454V33.6786H52.8454ZM53.8454 33.3466H51.8708V35.3466H53.8454V33.3466ZM52.8708 34.3466V33.6786H50.8708V34.3466H52.8708ZM51.8708 34.6786H53.8454V32.6786H51.8708V34.6786ZM53.1384 31.9413V32.6298H55.1384V31.9413H53.1384ZM54.1384 31.6298H51.8708V33.6298H54.1384V31.6298ZM52.8708 32.6298V31.9413H50.8708V32.6298H52.8708ZM51.8708 32.9413H54.1384V30.9413H51.8708V32.9413ZM56.6198 31.9413H57.6198V30.9413H56.6198V31.9413ZM56.6198 36.2069V37.2069H57.6198V36.2069H56.6198ZM55.7438 36.2069H54.7438V37.2069H55.7438V36.2069ZM55.7438 31.9413V30.9413H54.7438V31.9413H55.7438ZM57.9323 31.9413H58.9323V30.9413H57.9323V31.9413ZM57.9323 32.6298V33.6298H58.9323V32.6298H57.9323ZM54.4518 32.6298H53.4518V33.6298H54.4518V32.6298ZM54.4518 31.9413V30.9413H53.4518V31.9413H54.4518ZM55.6198 31.9413V36.2069H57.6198V31.9413H55.6198ZM56.6198 35.2069H55.7438V37.2069H56.6198V35.2069ZM56.7438 36.2069V31.9413H54.7438V36.2069H56.7438ZM55.7438 32.9413H56.6198V30.9413H55.7438V32.9413ZM56.9323 31.9413V32.6298H58.9323V31.9413H56.9323ZM57.9323 31.6298H54.4518V33.6298H57.9323V31.6298ZM55.4518 32.6298V31.9413H53.4518V32.6298H55.4518ZM54.4518 32.9413H57.9323V30.9413H54.4518V32.9413ZM61.2956 35.5214H62.2956V34.5214H61.2956V35.5214ZM61.2956 36.2069V37.2069H62.2956V36.2069H61.2956ZM59.0251 36.2069H58.0251V37.2069H59.0251V36.2069ZM59.0251 35.5214V34.5214H58.0251V35.5214H59.0251ZM59.3122 31.9413H60.3122V30.9413H59.3122V31.9413ZM59.3122 36.2069V37.2069H60.3122V36.2069H59.3122ZM58.4333 36.2069H57.4333V37.2069H58.4333V36.2069ZM58.4333 31.9413V30.9413H57.4333V31.9413H58.4333ZM60.9997 33.6786H61.9997V32.6786H60.9997V33.6786ZM60.9997 34.3466V35.3466H61.9997V34.3466H60.9997ZM59.0251 34.3466H58.0251V35.3466H59.0251V34.3466ZM59.0251 33.6786V32.6786H58.0251V33.6786H59.0251ZM61.2927 31.9413H62.2927V30.9413H61.2927V31.9413ZM61.2927 32.6298V33.6298H62.2927V32.6298H61.2927ZM59.0251 32.6298H58.0251V33.6298H59.0251V32.6298ZM59.0251 31.9413V30.9413H58.0251V31.9413H59.0251ZM60.2956 35.5214V36.2069H62.2956V35.5214H60.2956ZM61.2956 35.2069H59.0251V37.2069H61.2956V35.2069ZM60.0251 36.2069V35.5214H58.0251V36.2069H60.0251ZM59.0251 36.5214H61.2956V34.5214H59.0251V36.5214ZM58.3122 31.9413V36.2069H60.3122V31.9413H58.3122ZM59.3122 35.2069H58.4333V37.2069H59.3122V35.2069ZM59.4333 36.2069V31.9413H57.4333V36.2069H59.4333ZM58.4333 32.9413H59.3122V30.9413H58.4333V32.9413ZM59.9997 33.6786V34.3466H61.9997V33.6786H59.9997ZM60.9997 33.3466H59.0251V35.3466H60.9997V33.3466ZM60.0251 34.3466V33.6786H58.0251V34.3466H60.0251ZM59.0251 34.6786H60.9997V32.6786H59.0251V34.6786ZM60.2927 31.9413V32.6298H62.2927V31.9413H60.2927ZM61.2927 31.6298H59.0251V33.6298H61.2927V31.6298ZM60.0251 32.6298V31.9413H58.0251V32.6298H60.0251ZM59.0251 32.9413H61.2927V30.9413H59.0251V32.9413ZM61.8083 31.9413V30.9413H60.8083V31.9413H61.8083ZM64.2399 32.0878L63.8553 33.0108L63.858 33.012L64.2399 32.0878ZM64.8581 33.8163L63.9552 33.3863L63.953 33.391L64.8581 33.8163ZM64.5329 34.2235L65.1453 35.0141L65.1468 35.0129L64.5329 34.2235ZM64.0436 34.4813L63.7186 33.5356L63.6459 33.5606L63.5779 33.5964L64.0436 34.4813ZM63.7653 34.6278V35.6278H64.0124L64.2311 35.5127L63.7653 34.6278ZM62.3825 34.6278L61.3825 34.6364L61.391 35.6278H62.3825V34.6278ZM62.3766 33.9423V32.9423H61.3681L61.3767 33.9508L62.3766 33.9423ZM64.0173 33.6317L63.1374 33.1566L63.1337 33.1634L63.1301 33.1704L64.0173 33.6317ZM62.6872 32.6298V31.6298H61.6872V32.6298H62.6872ZM62.6872 36.2069V37.2069H63.6872V36.2069H62.6872ZM61.8083 36.2069H60.8083V37.2069H61.8083V36.2069ZM64.1931 36.2069L63.3028 36.6623L63.5814 37.2069H64.1931V36.2069ZM63.2204 34.3055L63.2141 33.3056L61.5908 33.3158L62.3301 34.761L63.2204 34.3055ZM64.1491 34.2997L65.0336 33.8331L64.7502 33.2959L64.1428 33.2997L64.1491 34.2997ZM65.1335 36.1659H66.1335V35.9183L66.018 35.6993L65.1335 36.1659ZM65.1335 36.2069V37.2069H66.1335V36.2069H65.1335ZM61.8083 32.9413H63.3991V30.9413H61.8083V32.9413ZM63.3991 32.9413C63.6292 32.9413 63.7721 32.9762 63.8553 33.0108L64.6245 31.1647C64.239 31.004 63.8213 30.9413 63.3991 30.9413V32.9413ZM63.858 33.012C63.9319 33.0425 63.947 33.0673 63.9515 33.0741L65.6182 31.9686C65.3688 31.5927 65.0206 31.3283 64.6218 31.1636L63.858 33.012ZM63.9515 33.0741C63.9519 33.0747 63.9567 33.0817 63.9622 33.1018C63.968 33.1233 63.9753 33.1632 63.9753 33.2274H65.9753C65.9753 32.7944 65.8754 32.3563 65.6182 31.9686L63.9515 33.0741ZM63.9753 33.2274C63.9753 33.2852 63.9703 33.3253 63.9652 33.3508C63.9602 33.3759 63.9553 33.3862 63.9552 33.3864L65.761 34.2462C65.9173 33.9179 65.9753 33.5675 65.9753 33.2274H63.9753ZM63.953 33.391C63.9435 33.4113 63.9345 33.4221 63.919 33.4342L65.1468 35.0129C65.4125 34.8062 65.6204 34.5455 65.7632 34.2416L63.953 33.391ZM63.9205 33.433C63.8789 33.4652 63.8158 33.5022 63.7186 33.5356L64.3687 35.427C64.6465 35.3315 64.9095 35.1967 65.1453 35.0141L63.9205 33.433ZM63.5779 33.5964L63.2996 33.7429L64.2311 35.5127L64.5094 35.3662L63.5779 33.5964ZM63.7653 33.6278H62.3825V35.6278H63.7653V33.6278ZM63.3825 34.6193L63.3766 33.9337L61.3767 33.9508L61.3825 34.6364L63.3825 34.6193ZM62.3766 34.9423H63.405V32.9423H62.3766V34.9423ZM63.405 34.9423C63.6711 34.9423 63.9747 34.8959 64.2629 34.7407L63.3147 32.9798C63.3997 32.934 63.4474 32.9423 63.405 32.9423V34.9423ZM64.2629 34.7407C64.5321 34.5957 64.7566 34.3775 64.9045 34.0931L63.1301 33.1704C63.1508 33.1306 63.1792 33.0907 63.215 33.055C63.2504 33.0195 63.2858 32.9953 63.3147 32.9798L64.2629 34.7407ZM64.8972 34.1069C65.0406 33.8412 65.0964 33.5597 65.0964 33.2919H63.0964C63.0964 33.2818 63.0994 33.2269 63.1374 33.1566L64.8972 34.1069ZM65.0964 33.2919C65.0964 33.0319 65.0478 32.7514 64.9111 32.4832L63.1293 33.3916C63.0941 33.3226 63.0964 33.2784 63.0964 33.2919H65.0964ZM64.9111 32.4832C64.7605 32.1878 64.5265 31.9624 64.2427 31.8178L63.3348 33.5999C63.3015 33.5829 63.2613 33.5563 63.2217 33.5171C63.1817 33.4777 63.151 33.4341 63.1293 33.3916L64.9111 32.4832ZM64.2427 31.8178C63.9586 31.6731 63.6612 31.6298 63.3991 31.6298V33.6298C63.4219 33.6298 63.4257 33.6318 63.4148 33.6295C63.4033 33.6272 63.374 33.6199 63.3348 33.5999L64.2427 31.8178ZM63.3991 31.6298H62.6872V33.6298H63.3991V31.6298ZM61.6872 32.6298V36.2069H63.6872V32.6298H61.6872ZM62.6872 35.2069H61.8083V37.2069H62.6872V35.2069ZM62.8083 36.2069V31.9413H60.8083V36.2069H62.8083ZM65.0833 35.7515L64.1107 33.8501L62.3301 34.761L63.3028 36.6623L65.0833 35.7515ZM63.2267 35.3055L64.1554 35.2997L64.1428 33.2997L63.2141 33.3056L63.2267 35.3055ZM63.2646 34.7662L64.249 36.6324L66.018 35.6993L65.0336 33.8331L63.2646 34.7662ZM64.1335 36.1659V36.2069H66.1335V36.1659H64.1335ZM65.1335 35.2069H64.1931V37.2069H65.1335V35.2069ZM67.8376 34.8856L66.8919 35.2107L66.8981 35.2288L66.905 35.2466L67.8376 34.8856ZM67.7145 34.7157L67.0578 35.4698L67.0648 35.4759L67.0719 35.4819L67.7145 34.7157ZM67.0349 34.4022L66.7273 35.3538L66.7347 35.3561L67.0349 34.4022ZM66.4841 34.1913L66.0703 35.1017L66.0741 35.1034L66.4841 34.1913ZM66.027 33.9188L65.3995 34.6974L65.4059 34.7025L65.4123 34.7076L66.027 33.9188ZM65.7165 33.5526L64.8348 34.0245L64.84 34.0341L65.7165 33.5526ZM65.7224 32.5858L66.6021 33.0613L66.6047 33.0564L65.7224 32.5858ZM66.0505 32.2108L66.6433 33.0162L66.6505 33.0108L66.0505 32.2108ZM66.5485 31.9677L66.2674 31.008L66.2648 31.0088L66.5485 31.9677ZM68.5524 32.5184L67.7153 33.0655L67.7191 33.0712L68.5524 32.5184ZM68.7487 33.1952V34.1952H69.7487V33.1952H68.7487ZM67.8757 33.1952H66.8757V34.1952H67.8757V33.1952ZM67.7966 32.8671L66.9132 33.3358L66.919 33.3466L66.925 33.3573L67.7966 32.8671ZM67.5622 32.6415L67.0951 33.5257L67.1019 33.5292L67.5622 32.6415ZM66.7888 32.6298L67.1933 33.5443L67.2006 33.5411L67.2078 33.5377L66.7888 32.6298ZM66.5602 32.8143L67.3923 33.3691L67.3987 33.3593L66.5602 32.8143ZM66.5368 33.2684L65.6793 33.7829L65.6855 33.7933L65.692 33.8035L66.5368 33.2684ZM67.3337 33.7079L67.0377 34.6631L67.0441 34.665L67.3337 33.7079ZM67.946 33.9452L67.4988 34.8396L67.5027 34.8416L67.946 33.9452ZM66.5807 36.1835L66.3145 37.1474L66.3231 37.1497L66.5807 36.1835ZM66.0212 35.9286L65.4575 36.7546L65.462 36.7577L66.0212 35.9286ZM65.4733 34.871V33.871H64.4733V34.871H65.4733ZM66.3552 34.871H67.3552V33.871H66.3552V34.871ZM66.5895 35.4305L65.9828 36.2256L65.9928 36.233L66.5895 35.4305ZM66.8591 35.5536L66.6208 36.5248L66.625 36.5258L66.8591 35.5536ZM67.5798 35.5272L67.1837 34.609L67.177 34.6119L67.5798 35.5272ZM67.7995 35.3485L66.9576 34.8088L66.9527 34.8166L66.9478 34.8244L67.7995 35.3485ZM68.8727 35.0907C68.8727 34.9121 68.8452 34.7184 68.7702 34.5246L66.905 35.2466C66.8769 35.1739 66.8727 35.117 66.8727 35.0907H68.8727ZM68.7833 34.5605C68.6921 34.2953 68.5295 34.0941 68.3572 33.9495L67.0719 35.4819C67.0207 35.4389 66.9401 35.351 66.8919 35.2107L68.7833 34.5605ZM68.3713 33.9616C68.2138 33.8244 68.0373 33.7261 67.8808 33.6534L67.0385 35.4674C67.052 35.4737 67.0625 35.4789 67.0704 35.4831C67.0784 35.4873 67.0832 35.4901 67.0851 35.4913C67.0872 35.4926 67.0856 35.4917 67.0813 35.4886C67.0769 35.4855 67.0687 35.4793 67.0578 35.4698L68.3713 33.9616ZM67.8808 33.6534C67.7177 33.5777 67.5315 33.5102 67.335 33.4483L66.7347 35.3561C66.8859 35.4037 66.9829 35.4416 67.0385 35.4674L67.8808 33.6534ZM67.3424 33.4507C67.1816 33.3987 67.0323 33.3413 66.894 33.2792L66.0741 35.1034C66.2834 35.1975 66.5014 35.2807 66.7273 35.3537L67.3424 33.4507ZM66.8979 33.2809C66.789 33.2314 66.7057 33.1799 66.6418 33.1301L65.4123 34.7076C65.614 34.8648 65.8354 34.9949 66.0703 35.1017L66.8979 33.2809ZM66.6546 33.1402C66.6189 33.1115 66.6025 33.0885 66.593 33.0712L64.84 34.0341C64.9828 34.2941 65.1735 34.5153 65.3995 34.6974L66.6546 33.1402ZM66.5982 33.0807C66.6013 33.0867 66.6036 33.092 66.6052 33.0963C66.6068 33.1005 66.6074 33.1031 66.6075 33.1033C66.6076 33.1039 66.6052 33.0937 66.6052 33.0692H64.6052C64.6052 33.3898 64.6709 33.7181 64.8348 34.0245L66.5982 33.0807ZM66.6052 33.0692C66.6052 33.054 66.6068 33.0488 66.6063 33.0507C66.6061 33.0514 66.6057 33.0531 66.6048 33.0553C66.6039 33.0576 66.603 33.0596 66.6021 33.0613L64.8426 32.1103C64.6792 32.4127 64.6052 32.7394 64.6052 33.0692H66.6052ZM66.6047 33.0564C66.6089 33.0486 66.6166 33.0358 66.6433 33.0162L65.4577 31.4055C65.2031 31.5928 64.9921 31.8301 64.84 32.1152L66.6047 33.0564ZM66.6505 33.0108C66.684 32.9857 66.7396 32.954 66.8323 32.9265L66.2648 31.0088C65.9746 31.0946 65.6982 31.225 65.4505 31.4108L66.6505 33.0108ZM66.8296 32.9273C66.9197 32.901 67.0355 32.8827 67.1843 32.8827V30.8827C66.872 30.8827 66.5641 30.9211 66.2674 31.008L66.8296 32.9273ZM67.1843 32.8827C67.3789 32.8827 67.499 32.9175 67.5723 32.953L68.4427 31.1523C68.0473 30.9612 67.6185 30.8827 67.1843 30.8827V32.8827ZM67.5723 32.953C67.6608 32.9957 67.696 33.0359 67.7153 33.0655L69.3895 31.9714C69.151 31.6064 68.823 31.3361 68.4427 31.1523L67.5723 32.953ZM67.7191 33.0712C67.7333 33.0926 67.7487 33.123 67.7487 33.1952H69.7487C69.7487 32.7596 69.6333 32.3388 69.3857 31.9656L67.7191 33.0712ZM68.7487 32.1952H67.8757V34.1952H68.7487V32.1952ZM68.8757 33.1952C68.8757 32.9265 68.8178 32.6429 68.6681 32.3768L66.925 33.3573C66.8808 33.2787 66.8757 33.2138 66.8757 33.1952H68.8757ZM68.6799 32.3983C68.5248 32.1059 68.2901 31.8924 68.0225 31.7537L67.1019 33.5292C67.0774 33.5165 67.0429 33.4945 67.0064 33.4594C66.9693 33.4237 66.9375 33.3814 66.9132 33.3358L68.6799 32.3983ZM68.0293 31.7573C67.7402 31.6046 67.436 31.5594 67.1696 31.5594V33.5594C67.1921 33.5594 67.1946 33.5615 67.1819 33.5588C67.1685 33.556 67.1367 33.5477 67.0951 33.5257L68.0293 31.7573ZM67.1696 31.5594C66.922 31.5594 66.6411 31.5965 66.3697 31.7218L67.2078 33.5377C67.1723 33.5541 67.1479 33.5593 67.1417 33.5604C67.1357 33.5615 67.1438 33.5594 67.1696 33.5594V31.5594ZM66.3843 31.7152C66.1398 31.8233 65.8972 31.9995 65.7218 32.2693L67.3987 33.3593C67.3249 33.4729 67.2346 33.526 67.1933 33.5443L66.3843 31.7152ZM65.7282 32.2596C65.5628 32.5078 65.4841 32.7885 65.4841 33.0721H67.4841C67.4841 33.1137 67.4784 33.1642 67.4621 33.2193C67.4458 33.2747 67.4214 33.3254 67.3923 33.369L65.7282 32.2596ZM65.4841 33.0721C65.4841 33.3148 65.5455 33.5599 65.6793 33.7829L67.3943 32.7539C67.4578 32.8598 67.4841 32.974 67.4841 33.0721H65.4841ZM65.692 33.8035C65.8159 33.9992 65.9742 34.1441 66.1259 34.2507L67.2758 32.6143C67.283 32.6193 67.3319 32.6549 67.3816 32.7334L65.692 33.8035ZM66.1259 34.2507C66.2695 34.3516 66.4236 34.4314 66.5756 34.4961L67.3593 32.656C67.3309 32.6439 67.3101 32.6337 67.2958 32.626C67.2814 32.6182 67.2754 32.614 67.2758 32.6143L66.1259 34.2507ZM66.5756 34.4961C66.7194 34.5573 66.8746 34.6125 67.0377 34.6631L67.6297 32.7527C67.5154 32.7173 67.4265 32.6846 67.3593 32.656L66.5756 34.4961ZM67.0441 34.665C67.2344 34.7226 67.3838 34.7822 67.4988 34.8396L68.3932 33.0508C68.1566 32.9324 67.8978 32.8338 67.6232 32.7507L67.0441 34.665ZM67.5027 34.8416C67.614 34.8966 67.6792 34.9449 67.715 34.9777L69.0676 33.5044C68.8651 33.3185 68.6335 33.1696 68.3893 33.0488L67.5027 34.8416ZM67.715 34.9777C67.7387 34.9995 67.7433 35.0109 67.7444 35.0133L69.5773 34.213C69.4572 33.938 69.2822 33.7014 69.0676 33.5044L67.715 34.9777ZM67.7444 35.0133C67.7416 35.007 67.7516 35.0247 67.7516 35.0848H69.7516C69.7516 34.7934 69.7011 34.4967 69.5773 34.213L67.7444 35.0133ZM67.7516 35.0848C67.7516 35.1126 67.749 35.1288 67.7474 35.1358C67.746 35.1425 67.7451 35.1431 67.7464 35.1405L69.5401 36.0253C69.6889 35.7236 69.7516 35.4029 69.7516 35.0848H67.7516ZM67.7464 35.1405C67.746 35.1415 67.7458 35.1417 67.7459 35.1415C67.746 35.1413 67.7461 35.1413 67.7459 35.1414C67.7458 35.1416 67.745 35.1426 67.7432 35.1442C67.7414 35.1459 67.7383 35.1486 67.7334 35.1522L68.9261 36.7577C69.1845 36.5657 69.3946 36.3202 69.5401 36.0253L67.7464 35.1405ZM67.7334 35.1522C67.7093 35.1701 67.6615 35.1982 67.5724 35.223L68.1087 37.1498C68.3984 37.0691 68.6768 36.9429 68.9261 36.7577L67.7334 35.1522ZM67.5724 35.223C67.485 35.2473 67.3653 35.2655 67.2048 35.2655V37.2655C67.513 37.2655 67.8171 37.2309 68.1087 37.1498L67.5724 35.223ZM67.2048 35.2655C67.0814 35.2655 66.96 35.2497 66.8384 35.2172L66.3231 37.1497C66.6117 37.2267 66.9063 37.2655 67.2048 37.2655V35.2655ZM66.847 35.2196C66.7409 35.1903 66.6542 35.1493 66.5803 35.0995L65.462 36.7577C65.7241 36.9344 66.0104 37.0634 66.3145 37.1474L66.847 35.2196ZM66.5848 35.1026C66.5457 35.0759 66.5174 35.0455 66.4928 35.002L64.7527 35.988C64.9273 36.296 65.1646 36.5547 65.4575 36.7546L66.5848 35.1026ZM66.4928 35.002C66.4918 35.0002 66.4876 34.9926 66.4832 34.9743C66.4786 34.9552 66.4733 34.9221 66.4733 34.871H64.4733C64.4733 35.2513 64.5531 35.6358 64.7527 35.988L66.4928 35.002ZM65.4733 35.871H66.3552V33.871H65.4733V35.871ZM65.3552 34.871C65.3552 35.1014 65.3901 35.3615 65.5037 35.6158L67.3297 34.7999C67.3459 34.8361 67.3521 34.8631 67.3543 34.8752C67.3564 34.887 67.3552 34.8866 67.3552 34.871H65.3552ZM65.5037 35.6158C65.6075 35.8481 65.7657 36.0597 65.9829 36.2255L67.1962 34.6356C67.265 34.6881 67.3079 34.7512 67.3297 34.7999L65.5037 35.6158ZM65.9928 36.233C66.1884 36.3785 66.4037 36.4715 66.6208 36.5248L67.0973 34.5824C67.1074 34.5849 67.143 34.5959 67.1862 34.6281L65.9928 36.233ZM66.625 36.5258C66.8177 36.5722 67.0126 36.5917 67.2048 36.5917V34.5917C67.1469 34.5917 67.1114 34.5858 67.0931 34.5814L66.625 36.5258ZM67.2048 36.5917C67.4409 36.5917 67.7158 36.5599 67.9825 36.4425L67.177 34.6119C67.2153 34.5951 67.2402 34.5906 67.2434 34.59C67.2467 34.5895 67.2351 34.5917 67.2048 34.5917V36.5917ZM67.9759 36.4454C68.2234 36.3387 68.4754 36.1583 68.6512 35.8726L66.9478 34.8244C67.0299 34.6911 67.1354 34.6298 67.1837 34.609L67.9759 36.4454ZM68.6414 35.8882C68.7995 35.6415 68.8727 35.3661 68.8727 35.0907H66.8727C66.8727 35.0067 66.8971 34.9032 66.9576 34.8088L68.6414 35.8882Z" fill="#AFB1B8"/>
</svg>
